<svg width="19" height="18" viewBox="0 0 19 18" fill="none" xmlns="http://www.w3.org/2000/svg">
<path d="M16.0833 3H2.58331C2.3844 3 2.19364 3.07902 2.05298 3.21967C1.91233 3.36032 1.83331 3.55109 1.83331 3.75V14.25C1.83331 14.4489 1.91233 14.6397 2.05298 14.7803C2.19364 14.921 2.3844 15 2.58331 15H16.0833C16.2822 15 16.473 14.921 16.6136 14.7803C16.7543 14.6397 16.8333 14.4489 16.8333 14.25V3.75C16.8333 3.55109 16.7543 3.36032 16.6136 3.21967C16.473 3.07902 16.2822 3 16.0833 3ZM15.3333 11.25C14.7366 11.25 14.1643 11.4871 13.7423 11.909C13.3204 12.331 13.0833 12.9033 13.0833 13.5H5.58331C5.58331 12.9033 5.34626 12.331 4.9243 11.909C4.50235 11.4871 3.93005 11.25 3.33331 11.25V6.75C3.93005 6.75 4.50235 6.51295 4.9243 6.09099C5.34626 5.66903 5.58331 5.09674 5.58331 4.5H13.0833C13.0833 5.09674 13.3204 5.66903 13.7423 6.09099C14.1643 6.51295 14.7366 6.75 15.3333 6.75V11.25Z" fill="#2ECC71"/>
<path d="M9.33331 6C7.67881 6 6.33331 7.3455 6.33331 9C6.33331 10.6545 7.67881 12 9.33331 12C10.9878 12 12.3333 10.6545 12.3333 9C12.3333 7.3455 10.9878 6 9.33331 6ZM9.33331 10.5C8.50606 10.5 7.83331 9.82725 7.83331 9C7.83331 8.17275 8.50606 7.5 9.33331 7.5C10.1606 7.5 10.8333 8.17275 10.8333 9C10.8333 9.82725 10.1606 10.5 9.33331 10.5Z" fill="#2ECC71"/>
</svg>
